<svg width="14" height="10" viewBox="0 0 14 10" fill="none" xmlns="http://www.w3.org/2000/svg">
<path fill-rule="evenodd" clip-rule="evenodd" d="M9.33038 0.269658C9.03749 -0.0232355 8.56261 -0.0232355 8.26972 0.269658C7.97683 0.562551 7.97683 1.03742 8.26972 1.33032L11.1894 4.25H1C0.585786 4.25 0.25 4.58579 0.25 5C0.25 5.41421 0.585786 5.75 1 5.75H11.1894L8.26972 8.66966C7.97683 8.96255 7.97683 9.43742 8.26972 9.73032C8.56261 10.0232 9.03749 10.0232 9.33038 9.73032L13.5304 5.53032C13.6166 5.44406 13.6775 5.34202 13.7129 5.2335C13.7273 5.18968 13.7377 5.14408 13.7438 5.09712C13.7524 5.03036 13.7521 4.96265 13.7428 4.89595C13.7373 4.85607 13.7286 4.81719 13.7171 4.77957C13.6823 4.66617 13.6201 4.55937 13.5304 4.46966L9.33038 0.269658Z" fill="#2B7EFB"/>
</svg>
